<svg id="レイヤー_1" data-name="レイヤー 1" xmlns="http://www.w3.org/2000/svg" viewBox="0 0 136.71 66.29"><defs><style>.cls-1{fill:#040000;}.cls-2{fill:none;stroke:#040000;stroke-miterlimit:10;stroke-width:0.71px;}</style></defs><ellipse class="cls-1" cx="263.69" cy="420.12" rx="6.99" ry="6.74" transform="translate(-338.09 -295.24) rotate(-16.55)"/><path class="cls-1" d="M270.34,420.34a49.67,49.67,0,0,1,.47-12.54c.58-3.27,1.65-6.64,3.89-9.16a11.4,11.4,0,0,1,1.82-1.65c1.16-.83,2-.22,2.77.69a10.16,10.16,0,0,1,2.2,4.8,8.94,8.94,0,0,1-.5,6,4,4,0,0,1-4.93,2c-.64-.26-.92.79-.29,1.05,3,1.19,5.92-1.14,6.73-3.93a12.36,12.36,0,0,0-1.7-9.7c-.66-1-2-2.62-3.28-2.55s-2.67,1.55-3.46,2.43a18.31,18.31,0,0,0-4.05,8.54,48.34,48.34,0,0,0-.75,14c.05.68,1.13.69,1.08,0Z" transform="translate(-229.36 -387.74)"/><path class="cls-1" d="M277.39,396.36c1.6,2.06,1.55,5,1.43,7.45s-1,5.58-3.67,6.54c-.65.23-.37,1.28.29,1,3-1.06,4.19-4.09,4.42-7s.19-6.32-1.71-8.76c-.42-.55-1.18.22-.76.76Z" transform="translate(-229.36 -387.74)"/><path class="cls-1" d="M282.46,404.89a.53.53,0,0,0,0-.39.42.42,0,0,0-.12-.25,5.81,5.81,0,0,0,0-.59.53.53,0,0,0-.33-.48,10.58,10.58,0,0,0-.27-3.27,10.8,10.8,0,0,0-.91-2.35c-.27-.5-1-.22-1,.28-.12,1.69.22,3.37.16,5.06a10.14,10.14,0,0,1-1.25,4.51,10.83,10.83,0,0,1-1.6,2.21.54.54,0,0,0,.65.84h0a.55.55,0,0,0,.61.05,7.91,7.91,0,0,0,.79-.48.47.47,0,0,0,.05.1.56.56,0,0,0,.75.18,2.19,2.19,0,0,0,.94-.94,2.24,2.24,0,0,0,.25-1.07A5.46,5.46,0,0,0,282.46,404.89Z" transform="translate(-229.36 -387.74)"/><ellipse class="cls-1" cx="294.12" cy="446.63" rx="6.99" ry="6.74" transform="translate(-344.38 -285.48) rotate(-16.55)"/><path class="cls-1" d="M300.33,444.18a50.6,50.6,0,0,1-4.53-10.85c-.92-3.31-1.44-7-.41-10.33a10.36,10.36,0,0,1,1-2.33,1.59,1.59,0,0,1,1.55-.92,4.11,4.11,0,0,1,1.48.53,10.53,10.53,0,0,1,3.89,3.49,8.68,8.68,0,0,1,2,5.58,3.94,3.94,0,0,1-3.65,3.69.54.54,0,0,0,0,1.08c3-.05,5-3,4.72-5.82a12.33,12.33,0,0,0-5.39-8.38c-1-.67-2.84-1.69-4.1-1.29s-1.89,2.3-2.29,3.36c-1.22,3.21-1,6.8-.22,10.1a48.54,48.54,0,0,0,5,12.64c.34.61,1.27.06.94-.55Z" transform="translate(-229.36 -387.74)"/><path class="cls-1" d="M296.92,419.7c2.3,1.24,3.49,3.79,4.42,6.12s1.5,5.53-.68,7.52c-.52.47.25,1.23.76.77,2.38-2.18,2.11-5.58,1.05-8.34s-2.37-5.59-5-7c-.61-.33-1.16.61-.54.93Z" transform="translate(-229.36 -387.74)"/><path class="cls-1" d="M305.19,425.51a.51.51,0,0,0-.17-.34.5.5,0,0,0-.22-.19c-.07-.18-.15-.35-.24-.53a.57.57,0,0,0-.51-.3,10.65,10.65,0,0,0-1.6-2.87,11.35,11.35,0,0,0-1.81-1.79.56.56,0,0,0-.84.66c.59,1.58,1.59,3,2.24,4.54a10.1,10.1,0,0,1,.13,7.21.54.54,0,0,0,.95.5h0a.52.52,0,0,0,.58-.18,7.91,7.91,0,0,0,.54-.75l.08.07a.59.59,0,0,0,.77-.12,2.14,2.14,0,0,0,.48-1.22,2.16,2.16,0,0,0-.21-1.07A5.27,5.27,0,0,0,305.19,425.51Z" transform="translate(-229.36 -387.74)"/><ellipse class="cls-1" cx="345.66" cy="422.48" rx="6.99" ry="6.74" transform="translate(-335.37 -271.8) rotate(-16.55)"/><path class="cls-1" d="M347.58,415.53a51,51,0,0,1-9.63-7.61c-2.53-2.59-4.91-5.79-5.36-9.49-.1-.85-.35-2.44.52-2.93a5.9,5.9,0,0,1,3-.3,12.72,12.72,0,0,1,5.36,1.89c1.52.91,3.09,2.23,3.51,4a3.65,3.65,0,0,1-1.72,4.11c-.61.33-.06,1.26.55.94,2.52-1.34,2.92-4.65,1.52-6.94-1.74-2.85-5.51-4.64-8.72-5.06-1.3-.17-3.37-.26-4.48.6s-.74,3-.56,4.12c.53,3.52,2.64,6.6,5,9.16a50.65,50.65,0,0,0,10.44,8.4c.59.37,1.14-.56.55-.93Z" transform="translate(-229.36 -387.74)"/><path class="cls-1" d="M332.52,395.85c2.7,0,5.09,1.76,7.09,3.41s3.9,4,2.94,6.72c-.23.66.81.94,1,.29,1.06-3-.88-5.81-3.07-7.66s-4.94-3.84-8-3.84a.54.54,0,0,0,0,1.08Z" transform="translate(-229.36 -387.74)"/><path class="cls-1" d="M342.72,397.06a.54.54,0,0,0-.33-.22.48.48,0,0,0-.28-.06,5.22,5.22,0,0,0-.48-.34.59.59,0,0,0-.6,0,10.83,10.83,0,0,0-5.33-2.46.54.54,0,0,0-.41.95c1.3,1.11,2.87,1.86,4.22,2.92a10,10,0,0,1,2.88,3.65,10.47,10.47,0,0,1,.79,2.55.55.55,0,0,0,1.09,0h0a.53.53,0,0,0,.43-.43,6.88,6.88,0,0,0,.1-.9l.11,0a.57.57,0,0,0,.63-.46,2,2,0,0,0-.18-1.28,2.2,2.2,0,0,0-.71-.83A5.33,5.33,0,0,0,342.72,397.06Z" transform="translate(-229.36 -387.74)"/><path class="cls-2" d="M229.63,438.81c7.24-8.4,16.44-15.42,27.35-18.11,11.27-2.78,21.54.44,32.22,3.84,17.23,5.48,32.92,3.72,47.57-7,10.8-7.9,19.42-18.57,26.81-29.62" transform="translate(-229.36 -387.74)"/><path class="cls-2" d="M230.91,447.87c7.38-8.36,16.76-15.23,27.8-17.65s21.15.94,31.6,4.24c17.13,5.41,32.78,3.41,47.28-7.26,10.73-7.89,19.29-18.5,26.64-29.49" transform="translate(-229.36 -387.74)"/><path class="cls-2" d="M231.83,453.79c10.26-12.2,25.26-21.2,41.26-19.2,15,2,28,10,43,8,23-4,38-23,49.69-39.68" transform="translate(-229.36 -387.74)"/></svg>