<svg id="レイヤー_1" data-name="レイヤー 1" xmlns="http://www.w3.org/2000/svg" viewBox="0 0 33.12 46.67"><defs><style>.cls-1{fill:#040000;}</style></defs><circle class="cls-1" cx="9.6" cy="37.07" r="9.6"/><path class="cls-1" d="M226.08,505a77.22,77.22,0,0,1-1.7-14.77,36.55,36.55,0,0,1,1.31-11.31,19.42,19.42,0,0,1,2.31-5.05,14.43,14.43,0,0,1,1.66-2.08,12.29,12.29,0,0,1,1.05-1,1.53,1.53,0,0,1,2,0c3.36,2.1,5.14,6.12,5.92,9.87.5,2.43.57,5.27-.89,7.41a5.13,5.13,0,0,1-5.58,2.27c-.93-.29-1.33,1.17-.4,1.45,4.37,1.33,8.06-2.6,8.59-6.66a18.17,18.17,0,0,0-4.25-13.39c-1.07-1.23-3.17-3.34-5-2.94a6,6,0,0,0-2.55,1.91,16.88,16.88,0,0,0-2,2.54c-2.43,3.78-3.35,8.35-3.64,12.78a71.22,71.22,0,0,0,1.66,19.36c.2,1,1.66.55,1.46-.4Z" transform="translate(-207.35 -468.76)"/><path class="cls-1" d="M231.16,470.21c2.57,2.64,3.11,6.62,3.41,10.14.32,3.7-.14,8.15-3.85,10-.87.44-.1,1.74.76,1.31,4-2,4.93-6.81,4.63-10.92s-.93-8.58-3.88-11.62c-.68-.7-1.75.37-1.07,1.07Z" transform="translate(-207.35 -468.76)"/><path class="cls-1" d="M239.78,481.49a.84.84,0,0,0-.09-.54.75.75,0,0,0-.22-.34,7.36,7.36,0,0,0-.12-.82.78.78,0,0,0-.54-.62,15.5,15.5,0,0,0-1-4.57,14.93,14.93,0,0,0-1.69-3.18c-.45-.66-1.39-.15-1.35.56.15,2.4.93,4.71,1.17,7.1a14.62,14.62,0,0,1-.87,6.55A14.44,14.44,0,0,1,233.3,489a.76.76,0,0,0,1,1.07h0a.72.72,0,0,0,.84,0,8.44,8.44,0,0,0,1-.81.64.64,0,0,0,.08.14.77.77,0,0,0,1.06.15,3,3,0,0,0,1.11-1.48,3.25,3.25,0,0,0,.14-1.54A7.73,7.73,0,0,0,239.78,481.49Z" transform="translate(-207.35 -468.76)"/></svg>